<svg width="950" height="950" viewBox="0 0 950 950" fill="none" xmlns="http://www.w3.org/2000/svg">
<circle cx="475" cy="475" r="475" fill="#F5F5F5"/>
<path d="M476.354 474.153L275.646 474.516L174.771 295.137L274.996 115.394L475.704 115.031L576.578 294.41L476.354 474.153Z" stroke="#0B9C99" stroke-width="15"/>
<path d="M477.005 834.153L276.297 834.516L175.423 655.136L275.647 475.393L476.355 475.03L577.23 654.409L477.005 834.153Z" stroke="#0B9C99" stroke-width="15"/>
<path d="M778.677 652.606L577.97 652.97L477.095 473.59L577.32 293.847L778.028 293.484L878.902 472.863L778.677 652.606Z" stroke="#0B9C99" stroke-width="15"/>
<path d="M177 291.5L277.976 111.083" stroke="#F5F5F5" stroke-width="20"/>
<path d="M271.963 114.995L486 114.995" stroke="#F5F5F5" stroke-width="20"/>
<line x1="161" y1="287" x2="194" y2="287" stroke="#F5F5F5" stroke-width="16"/>
<line x1="468" y1="117" x2="501" y2="117" stroke="#F5F5F5" stroke-width="16"/>
<path d="M175.28 199.1L272.932 233.486L251.96 263.207L150.95 227.639L175.28 199.1Z" fill="#A4D5B4"/>
<path d="M265.767 147.208L364.254 181.888L343.202 211.581L241.328 175.709L265.767 147.208Z" fill="#A4D5B4"/>
<path d="M356.981 95.5717L454.633 129.958L433.66 159.679L332.65 124.111L356.981 95.5717Z" fill="#A4D5B4"/>
<path d="M240.592 216.797L274.593 228.769L275.25 194.015L239.336 181.368L240.592 216.797Z" fill="#A4D5B4"/>
<path d="M149.121 271.522L182.458 267.623L183.263 249.619L147.628 237.071L149.121 271.522Z" fill="#A4D5B4"/>
<path d="M332.246 164.256L366.247 176.228L366.572 142.417L330.657 129.77L332.246 164.256Z" fill="#A4D5B4"/>
<path d="M424.047 109.646L457.622 121.469L458.076 87.7028L424.958 93.7991L424.047 109.646Z" fill="#A4D5B4"/>
</svg>
